<mxfile host="app.diagrams.net" modified="2023-12-10T14:39:48.836Z" agent="Mozilla/5.0 (Windows NT 10.0; Win64; x64) AppleWebKit/537.36 (KHTML, like Gecko) Chrome/120.0.0.0 Safari/537.36 Edg/120.0.0.0" etag="XrX-kxhREySwwetRP0wo" version="22.1.7" type="github">
  <diagram name="第 1 页" id="K3Sk5iGvBDbTyE4i1tNn">
    <mxGraphModel dx="786" dy="459" grid="1" gridSize="10" guides="1" tooltips="1" connect="1" arrows="1" fold="1" page="1" pageScale="1" pageWidth="160000" pageHeight="160000" math="0" shadow="0">
      <root>
        <mxCell id="0" />
        <mxCell id="1" parent="0" />
        <mxCell id="RFupG9pCw3E_9kfrd0Ui-1" value="用户" style="shape=umlLifeline;perimeter=lifelinePerimeter;whiteSpace=wrap;html=1;container=1;dropTarget=0;collapsible=0;recursiveResize=0;outlineConnect=0;portConstraint=eastwest;newEdgeStyle={&quot;curved&quot;:0,&quot;rounded&quot;:0};" vertex="1" parent="1">
          <mxGeometry x="280" y="110" width="100" height="300" as="geometry" />
        </mxCell>
        <mxCell id="RFupG9pCw3E_9kfrd0Ui-3" value="" style="html=1;points=[[0,0,0,0,5],[0,1,0,0,-5],[1,0,0,0,5],[1,1,0,0,-5]];perimeter=orthogonalPerimeter;outlineConnect=0;targetShapes=umlLifeline;portConstraint=eastwest;newEdgeStyle={&quot;curved&quot;:0,&quot;rounded&quot;:0};" vertex="1" parent="RFupG9pCw3E_9kfrd0Ui-1">
          <mxGeometry x="45" y="80" width="10" height="90" as="geometry" />
        </mxCell>
        <mxCell id="RFupG9pCw3E_9kfrd0Ui-2" value="登录界面" style="shape=umlLifeline;perimeter=lifelinePerimeter;whiteSpace=wrap;html=1;container=1;dropTarget=0;collapsible=0;recursiveResize=0;outlineConnect=0;portConstraint=eastwest;newEdgeStyle={&quot;curved&quot;:0,&quot;rounded&quot;:0};" vertex="1" parent="1">
          <mxGeometry x="450" y="110" width="100" height="300" as="geometry" />
        </mxCell>
        <mxCell id="RFupG9pCw3E_9kfrd0Ui-6" value="" style="html=1;points=[[0,0,0,0,5],[0,1,0,0,-5],[1,0,0,0,5],[1,1,0,0,-5]];perimeter=orthogonalPerimeter;outlineConnect=0;targetShapes=umlLifeline;portConstraint=eastwest;newEdgeStyle={&quot;curved&quot;:0,&quot;rounded&quot;:0};" vertex="1" parent="RFupG9pCw3E_9kfrd0Ui-2">
          <mxGeometry x="45" y="80" width="10" height="50" as="geometry" />
        </mxCell>
        <mxCell id="RFupG9pCw3E_9kfrd0Ui-8" value="2.查询数据库，验证数据是否正确" style="html=1;align=left;spacingLeft=2;endArrow=block;rounded=0;edgeStyle=orthogonalEdgeStyle;curved=0;rounded=0;" edge="1" parent="RFupG9pCw3E_9kfrd0Ui-2">
          <mxGeometry relative="1" as="geometry">
            <mxPoint x="55" y="110" as="sourcePoint" />
            <Array as="points">
              <mxPoint x="55" y="100" />
              <mxPoint x="85" y="100" />
              <mxPoint x="85" y="150" />
            </Array>
            <mxPoint x="55" y="150" as="targetPoint" />
          </mxGeometry>
        </mxCell>
        <mxCell id="RFupG9pCw3E_9kfrd0Ui-54" value="" style="html=1;points=[[0,0,0,0,5],[0,1,0,0,-5],[1,0,0,0,5],[1,1,0,0,-5]];perimeter=orthogonalPerimeter;outlineConnect=0;targetShapes=umlLifeline;portConstraint=eastwest;newEdgeStyle={&quot;curved&quot;:0,&quot;rounded&quot;:0};" vertex="1" parent="RFupG9pCw3E_9kfrd0Ui-2">
          <mxGeometry x="45" y="140" width="10" height="80" as="geometry" />
        </mxCell>
        <mxCell id="RFupG9pCw3E_9kfrd0Ui-4" value="1.输入学/工号，输入密码" style="endArrow=block;endFill=1;html=1;edgeStyle=orthogonalEdgeStyle;align=left;verticalAlign=top;rounded=0;" edge="1" parent="1">
          <mxGeometry x="-0.6875" y="30" relative="1" as="geometry">
            <mxPoint x="335" y="200" as="sourcePoint" />
            <mxPoint x="495" y="200" as="targetPoint" />
            <mxPoint as="offset" />
          </mxGeometry>
        </mxCell>
        <mxCell id="RFupG9pCw3E_9kfrd0Ui-10" value="3.学/工号或者密码不正确" style="html=1;verticalAlign=bottom;endArrow=open;dashed=1;endSize=8;curved=0;rounded=0;" edge="1" parent="1" source="RFupG9pCw3E_9kfrd0Ui-2">
          <mxGeometry relative="1" as="geometry">
            <mxPoint x="470" y="259.5" as="sourcePoint" />
            <mxPoint x="335" y="260" as="targetPoint" />
          </mxGeometry>
        </mxCell>
        <mxCell id="RFupG9pCw3E_9kfrd0Ui-13" value="" style="shape=umlLifeline;perimeter=lifelinePerimeter;whiteSpace=wrap;html=1;container=1;dropTarget=0;collapsible=0;recursiveResize=0;outlineConnect=0;portConstraint=eastwest;newEdgeStyle={&quot;curved&quot;:0,&quot;rounded&quot;:0};participant=umlActor;" vertex="1" parent="1">
          <mxGeometry x="210" y="600" width="20" height="410" as="geometry" />
        </mxCell>
        <mxCell id="RFupG9pCw3E_9kfrd0Ui-18" value="" style="html=1;points=[[0,0,0,0,5],[0,1,0,0,-5],[1,0,0,0,5],[1,1,0,0,-5]];perimeter=orthogonalPerimeter;outlineConnect=0;targetShapes=umlLifeline;portConstraint=eastwest;newEdgeStyle={&quot;curved&quot;:0,&quot;rounded&quot;:0};" vertex="1" parent="RFupG9pCw3E_9kfrd0Ui-13">
          <mxGeometry x="5" y="50" width="10" height="80" as="geometry" />
        </mxCell>
        <mxCell id="RFupG9pCw3E_9kfrd0Ui-63" value="" style="html=1;points=[[0,0,0,0,5],[0,1,0,0,-5],[1,0,0,0,5],[1,1,0,0,-5]];perimeter=orthogonalPerimeter;outlineConnect=0;targetShapes=umlLifeline;portConstraint=eastwest;newEdgeStyle={&quot;curved&quot;:0,&quot;rounded&quot;:0};" vertex="1" parent="RFupG9pCw3E_9kfrd0Ui-13">
          <mxGeometry x="5" y="170" width="10" height="80" as="geometry" />
        </mxCell>
        <mxCell id="RFupG9pCw3E_9kfrd0Ui-64" value="" style="html=1;points=[[0,0,0,0,5],[0,1,0,0,-5],[1,0,0,0,5],[1,1,0,0,-5]];perimeter=orthogonalPerimeter;outlineConnect=0;targetShapes=umlLifeline;portConstraint=eastwest;newEdgeStyle={&quot;curved&quot;:0,&quot;rounded&quot;:0};" vertex="1" parent="RFupG9pCw3E_9kfrd0Ui-13">
          <mxGeometry x="5" y="270" width="10" height="80" as="geometry" />
        </mxCell>
        <mxCell id="RFupG9pCw3E_9kfrd0Ui-14" value="首页界面" style="shape=umlLifeline;perimeter=lifelinePerimeter;whiteSpace=wrap;html=1;container=1;dropTarget=0;collapsible=0;recursiveResize=0;outlineConnect=0;portConstraint=eastwest;newEdgeStyle={&quot;curved&quot;:0,&quot;rounded&quot;:0};" vertex="1" parent="1">
          <mxGeometry x="340" y="590" width="100" height="420" as="geometry" />
        </mxCell>
        <mxCell id="RFupG9pCw3E_9kfrd0Ui-19" value="" style="html=1;points=[[0,0,0,0,5],[0,1,0,0,-5],[1,0,0,0,5],[1,1,0,0,-5]];perimeter=orthogonalPerimeter;outlineConnect=0;targetShapes=umlLifeline;portConstraint=eastwest;newEdgeStyle={&quot;curved&quot;:0,&quot;rounded&quot;:0};" vertex="1" parent="RFupG9pCw3E_9kfrd0Ui-14">
          <mxGeometry x="45" y="60" width="10" height="40" as="geometry" />
        </mxCell>
        <mxCell id="RFupG9pCw3E_9kfrd0Ui-15" value="学生" style="text;html=1;strokeColor=none;fillColor=none;align=center;verticalAlign=middle;whiteSpace=wrap;rounded=0;" vertex="1" parent="1">
          <mxGeometry x="190" y="570" width="60" height="30" as="geometry" />
        </mxCell>
        <mxCell id="RFupG9pCw3E_9kfrd0Ui-16" value="宿舍管理界面" style="shape=umlLifeline;perimeter=lifelinePerimeter;whiteSpace=wrap;html=1;container=1;dropTarget=0;collapsible=0;recursiveResize=0;outlineConnect=0;portConstraint=eastwest;newEdgeStyle={&quot;curved&quot;:0,&quot;rounded&quot;:0};" vertex="1" parent="1">
          <mxGeometry x="520" y="590" width="100" height="430" as="geometry" />
        </mxCell>
        <mxCell id="RFupG9pCw3E_9kfrd0Ui-23" value="" style="html=1;points=[[0,0,0,0,5],[0,1,0,0,-5],[1,0,0,0,5],[1,1,0,0,-5]];perimeter=orthogonalPerimeter;outlineConnect=0;targetShapes=umlLifeline;portConstraint=eastwest;newEdgeStyle={&quot;curved&quot;:0,&quot;rounded&quot;:0};" vertex="1" parent="RFupG9pCw3E_9kfrd0Ui-16">
          <mxGeometry x="45" y="60" width="10" height="100" as="geometry" />
        </mxCell>
        <mxCell id="RFupG9pCw3E_9kfrd0Ui-27" value="" style="html=1;points=[[0,0,0,0,5],[0,1,0,0,-5],[1,0,0,0,5],[1,1,0,0,-5]];perimeter=orthogonalPerimeter;outlineConnect=0;targetShapes=umlLifeline;portConstraint=eastwest;newEdgeStyle={&quot;curved&quot;:0,&quot;rounded&quot;:0};" vertex="1" parent="RFupG9pCw3E_9kfrd0Ui-16">
          <mxGeometry x="45" y="190" width="10" height="60" as="geometry" />
        </mxCell>
        <mxCell id="RFupG9pCw3E_9kfrd0Ui-32" value="" style="html=1;points=[[0,0,0,0,5],[0,1,0,0,-5],[1,0,0,0,5],[1,1,0,0,-5]];perimeter=orthogonalPerimeter;outlineConnect=0;targetShapes=umlLifeline;portConstraint=eastwest;newEdgeStyle={&quot;curved&quot;:0,&quot;rounded&quot;:0};" vertex="1" parent="RFupG9pCw3E_9kfrd0Ui-16">
          <mxGeometry x="45" y="284" width="10" height="80" as="geometry" />
        </mxCell>
        <mxCell id="RFupG9pCw3E_9kfrd0Ui-20" value="1.查看宿舍信息" style="endArrow=block;endFill=1;html=1;edgeStyle=orthogonalEdgeStyle;align=left;verticalAlign=top;rounded=0;" edge="1" parent="1">
          <mxGeometry x="-0.5625" y="30" relative="1" as="geometry">
            <mxPoint x="225" y="670" as="sourcePoint" />
            <mxPoint x="385" y="670" as="targetPoint" />
            <mxPoint as="offset" />
          </mxGeometry>
        </mxCell>
        <mxCell id="RFupG9pCw3E_9kfrd0Ui-22" value="2.跳转至相应界面" style="endArrow=block;endFill=1;html=1;align=left;verticalAlign=top;rounded=0;" edge="1" parent="1" target="RFupG9pCw3E_9kfrd0Ui-16">
          <mxGeometry x="-0.5625" y="30" relative="1" as="geometry">
            <mxPoint x="396" y="670" as="sourcePoint" />
            <mxPoint x="556" y="670" as="targetPoint" />
            <mxPoint as="offset" />
          </mxGeometry>
        </mxCell>
        <mxCell id="RFupG9pCw3E_9kfrd0Ui-25" value="3.显示宿舍号、宿舍电费、水费余额" style="html=1;verticalAlign=bottom;endArrow=block;endSize=8;curved=0;rounded=0;endFill=1;" edge="1" parent="1">
          <mxGeometry relative="1" as="geometry">
            <mxPoint x="565.5" y="720" as="sourcePoint" />
            <mxPoint x="226" y="720" as="targetPoint" />
          </mxGeometry>
        </mxCell>
        <mxCell id="RFupG9pCw3E_9kfrd0Ui-28" value="4.用电查询" style="endArrow=block;endFill=1;html=1;align=left;verticalAlign=top;rounded=0;" edge="1" parent="1">
          <mxGeometry x="-0.3824" y="28" relative="1" as="geometry">
            <mxPoint x="225" y="798" as="sourcePoint" />
            <mxPoint x="565" y="798" as="targetPoint" />
            <mxPoint as="offset" />
          </mxGeometry>
        </mxCell>
        <mxCell id="RFupG9pCw3E_9kfrd0Ui-29" value="5.显示用电记录" style="html=1;verticalAlign=bottom;endArrow=block;endSize=8;curved=0;rounded=0;endFill=1;" edge="1" parent="1">
          <mxGeometry relative="1" as="geometry">
            <mxPoint x="563.75" y="832" as="sourcePoint" />
            <mxPoint x="224.25" y="832" as="targetPoint" />
          </mxGeometry>
        </mxCell>
        <mxCell id="RFupG9pCw3E_9kfrd0Ui-30" value="6.宿舍报修" style="endArrow=block;endFill=1;html=1;align=left;verticalAlign=top;rounded=0;" edge="1" parent="1">
          <mxGeometry x="-0.3824" y="28" relative="1" as="geometry">
            <mxPoint x="226" y="889" as="sourcePoint" />
            <mxPoint x="566" y="889" as="targetPoint" />
            <mxPoint as="offset" />
          </mxGeometry>
        </mxCell>
        <mxCell id="RFupG9pCw3E_9kfrd0Ui-33" value="7.返回报修结果" style="html=1;verticalAlign=bottom;endArrow=block;endSize=8;curved=0;rounded=0;endFill=1;" edge="1" parent="1">
          <mxGeometry relative="1" as="geometry">
            <mxPoint x="563.75" y="927" as="sourcePoint" />
            <mxPoint x="224.25" y="927" as="targetPoint" />
          </mxGeometry>
        </mxCell>
        <mxCell id="RFupG9pCw3E_9kfrd0Ui-34" value="" style="shape=umlLifeline;perimeter=lifelinePerimeter;whiteSpace=wrap;html=1;container=1;dropTarget=0;collapsible=0;recursiveResize=0;outlineConnect=0;portConstraint=eastwest;newEdgeStyle={&quot;curved&quot;:0,&quot;rounded&quot;:0};participant=umlActor;" vertex="1" parent="1">
          <mxGeometry x="770" y="620" width="20" height="410" as="geometry" />
        </mxCell>
        <mxCell id="RFupG9pCw3E_9kfrd0Ui-35" value="" style="html=1;points=[[0,0,0,0,5],[0,1,0,0,-5],[1,0,0,0,5],[1,1,0,0,-5]];perimeter=orthogonalPerimeter;outlineConnect=0;targetShapes=umlLifeline;portConstraint=eastwest;newEdgeStyle={&quot;curved&quot;:0,&quot;rounded&quot;:0};" vertex="1" parent="RFupG9pCw3E_9kfrd0Ui-34">
          <mxGeometry x="5" y="50" width="10" height="190" as="geometry" />
        </mxCell>
        <mxCell id="RFupG9pCw3E_9kfrd0Ui-38" value="学生" style="text;html=1;strokeColor=none;fillColor=none;align=center;verticalAlign=middle;whiteSpace=wrap;rounded=0;" vertex="1" parent="1">
          <mxGeometry x="750" y="590" width="60" height="30" as="geometry" />
        </mxCell>
        <mxCell id="RFupG9pCw3E_9kfrd0Ui-39" value="请假界面" style="shape=umlLifeline;perimeter=lifelinePerimeter;whiteSpace=wrap;html=1;container=1;dropTarget=0;collapsible=0;recursiveResize=0;outlineConnect=0;portConstraint=eastwest;newEdgeStyle={&quot;curved&quot;:0,&quot;rounded&quot;:0};" vertex="1" parent="1">
          <mxGeometry x="920" y="606" width="100" height="430" as="geometry" />
        </mxCell>
        <mxCell id="RFupG9pCw3E_9kfrd0Ui-40" value="" style="html=1;points=[[0,0,0,0,5],[0,1,0,0,-5],[1,0,0,0,5],[1,1,0,0,-5]];perimeter=orthogonalPerimeter;outlineConnect=0;targetShapes=umlLifeline;portConstraint=eastwest;newEdgeStyle={&quot;curved&quot;:0,&quot;rounded&quot;:0};" vertex="1" parent="RFupG9pCw3E_9kfrd0Ui-39">
          <mxGeometry x="45" y="60" width="10" height="70" as="geometry" />
        </mxCell>
        <mxCell id="RFupG9pCw3E_9kfrd0Ui-61" value="" style="html=1;points=[[0,0,0,0,5],[0,1,0,0,-5],[1,0,0,0,5],[1,1,0,0,-5]];perimeter=orthogonalPerimeter;outlineConnect=0;targetShapes=umlLifeline;portConstraint=eastwest;newEdgeStyle={&quot;curved&quot;:0,&quot;rounded&quot;:0};" vertex="1" parent="RFupG9pCw3E_9kfrd0Ui-39">
          <mxGeometry x="45" y="144" width="10" height="56" as="geometry" />
        </mxCell>
        <mxCell id="RFupG9pCw3E_9kfrd0Ui-43" value="1.新建请假申请" style="endArrow=block;endFill=1;html=1;align=left;verticalAlign=top;rounded=0;" edge="1" parent="1" target="RFupG9pCw3E_9kfrd0Ui-40">
          <mxGeometry x="-0.5625" y="30" relative="1" as="geometry">
            <mxPoint x="786" y="690" as="sourcePoint" />
            <mxPoint x="960" y="690" as="targetPoint" />
            <mxPoint as="offset" />
          </mxGeometry>
        </mxCell>
        <mxCell id="RFupG9pCw3E_9kfrd0Ui-44" value="2.等待用户输入" style="endArrow=block;endFill=1;html=1;align=left;verticalAlign=top;rounded=0;" edge="1" parent="1">
          <mxGeometry x="0.6111" y="-24" relative="1" as="geometry">
            <mxPoint x="965" y="724" as="sourcePoint" />
            <mxPoint x="785" y="724" as="targetPoint" />
            <mxPoint as="offset" />
          </mxGeometry>
        </mxCell>
        <mxCell id="RFupG9pCw3E_9kfrd0Ui-45" value="3.输入请假信息" style="endArrow=block;endFill=1;html=1;align=left;verticalAlign=top;rounded=0;" edge="1" parent="1">
          <mxGeometry x="-0.4972" y="21" relative="1" as="geometry">
            <mxPoint x="785" y="761" as="sourcePoint" />
            <mxPoint x="964" y="761" as="targetPoint" />
            <mxPoint as="offset" />
          </mxGeometry>
        </mxCell>
        <mxCell id="RFupG9pCw3E_9kfrd0Ui-46" value="4.返回审批结果" style="html=1;verticalAlign=bottom;endArrow=block;curved=0;rounded=0;endFill=1;" edge="1" parent="1">
          <mxGeometry x="0.0028" relative="1" as="geometry">
            <mxPoint x="1155" y="822" as="sourcePoint" />
            <mxPoint x="785" y="821.75" as="targetPoint" />
            <mxPoint as="offset" />
          </mxGeometry>
        </mxCell>
        <mxCell id="RFupG9pCw3E_9kfrd0Ui-49" value="首页界面" style="shape=umlLifeline;perimeter=lifelinePerimeter;whiteSpace=wrap;html=1;container=1;dropTarget=0;collapsible=0;recursiveResize=0;outlineConnect=0;portConstraint=eastwest;newEdgeStyle={&quot;curved&quot;:0,&quot;rounded&quot;:0};" vertex="1" parent="1">
          <mxGeometry x="700" y="110" width="100" height="300" as="geometry" />
        </mxCell>
        <mxCell id="RFupG9pCw3E_9kfrd0Ui-52" value="" style="html=1;points=[[0,0,0,0,5],[0,1,0,0,-5],[1,0,0,0,5],[1,1,0,0,-5]];perimeter=orthogonalPerimeter;outlineConnect=0;targetShapes=umlLifeline;portConstraint=eastwest;newEdgeStyle={&quot;curved&quot;:0,&quot;rounded&quot;:0};" vertex="1" parent="RFupG9pCw3E_9kfrd0Ui-49">
          <mxGeometry x="45" y="153" width="10" height="80" as="geometry" />
        </mxCell>
        <mxCell id="RFupG9pCw3E_9kfrd0Ui-55" value="4.数据正确，跳转页面" style="endArrow=block;endFill=1;html=1;align=left;verticalAlign=top;rounded=0;" edge="1" parent="1" target="RFupG9pCw3E_9kfrd0Ui-52">
          <mxGeometry x="-0.6875" y="30" relative="1" as="geometry">
            <mxPoint x="505" y="300" as="sourcePoint" />
            <mxPoint x="665" y="300" as="targetPoint" />
            <mxPoint as="offset" />
          </mxGeometry>
        </mxCell>
        <mxCell id="RFupG9pCw3E_9kfrd0Ui-57" value="" style="shape=umlLifeline;perimeter=lifelinePerimeter;whiteSpace=wrap;html=1;container=1;dropTarget=0;collapsible=0;recursiveResize=0;outlineConnect=0;portConstraint=eastwest;newEdgeStyle={&quot;curved&quot;:0,&quot;rounded&quot;:0};participant=umlActor;" vertex="1" parent="1">
          <mxGeometry x="1150" y="620" width="20" height="410" as="geometry" />
        </mxCell>
        <mxCell id="RFupG9pCw3E_9kfrd0Ui-58" value="" style="html=1;points=[[0,0,0,0,5],[0,1,0,0,-5],[1,0,0,0,5],[1,1,0,0,-5]];perimeter=orthogonalPerimeter;outlineConnect=0;targetShapes=umlLifeline;portConstraint=eastwest;newEdgeStyle={&quot;curved&quot;:0,&quot;rounded&quot;:0};" vertex="1" parent="RFupG9pCw3E_9kfrd0Ui-57">
          <mxGeometry x="5" y="146" width="10" height="70" as="geometry" />
        </mxCell>
        <mxCell id="RFupG9pCw3E_9kfrd0Ui-60" value="管理员" style="text;html=1;strokeColor=none;fillColor=none;align=center;verticalAlign=middle;whiteSpace=wrap;rounded=0;" vertex="1" parent="1">
          <mxGeometry x="1130" y="590" width="60" height="30" as="geometry" />
        </mxCell>
        <mxCell id="RFupG9pCw3E_9kfrd0Ui-62" value="4.创建成功，管理员审批" style="endArrow=block;endFill=1;html=1;align=left;verticalAlign=top;rounded=0;" edge="1" parent="1">
          <mxGeometry x="-0.4972" y="21" relative="1" as="geometry">
            <mxPoint x="976" y="780" as="sourcePoint" />
            <mxPoint x="1155" y="780" as="targetPoint" />
            <mxPoint as="offset" />
          </mxGeometry>
        </mxCell>
        <mxCell id="RFupG9pCw3E_9kfrd0Ui-56" value="" style="html=1;points=[[0,0,0,0,5],[0,1,0,0,-5],[1,0,0,0,5],[1,1,0,0,-5]];perimeter=orthogonalPerimeter;outlineConnect=0;targetShapes=umlLifeline;portConstraint=eastwest;newEdgeStyle={&quot;curved&quot;:0,&quot;rounded&quot;:0};" vertex="1" parent="1">
          <mxGeometry x="775" y="916" width="10" height="80" as="geometry" />
        </mxCell>
        <mxCell id="RFupG9pCw3E_9kfrd0Ui-42" value="" style="html=1;points=[[0,0,0,0,5],[0,1,0,0,-5],[1,0,0,0,5],[1,1,0,0,-5]];perimeter=orthogonalPerimeter;outlineConnect=0;targetShapes=umlLifeline;portConstraint=eastwest;newEdgeStyle={&quot;curved&quot;:0,&quot;rounded&quot;:0};" vertex="1" parent="1">
          <mxGeometry x="965" y="916" width="10" height="80" as="geometry" />
        </mxCell>
        <mxCell id="RFupG9pCw3E_9kfrd0Ui-47" value="5.查看请假具体信息" style="endArrow=block;endFill=1;html=1;align=left;verticalAlign=top;rounded=0;" edge="1" parent="1">
          <mxGeometry x="-0.5625" y="30" relative="1" as="geometry">
            <mxPoint x="786" y="932" as="sourcePoint" />
            <mxPoint x="965" y="932" as="targetPoint" />
            <mxPoint as="offset" />
          </mxGeometry>
        </mxCell>
        <mxCell id="RFupG9pCw3E_9kfrd0Ui-48" value="6.返回具体信息" style="html=1;verticalAlign=bottom;endArrow=block;endSize=8;curved=0;rounded=0;endFill=1;" edge="1" parent="1">
          <mxGeometry x="0.0028" relative="1" as="geometry">
            <mxPoint x="965.5" y="969" as="sourcePoint" />
            <mxPoint x="786" y="969" as="targetPoint" />
            <mxPoint as="offset" />
          </mxGeometry>
        </mxCell>
      </root>
    </mxGraphModel>
  </diagram>
</mxfile>
